<?xml version="1.0" standalone="no"?>
<!DOCTYPE svg PUBLIC "-//W3C//DTD SVG 20010904//EN"
 "http://www.w3.org/TR/2001/REC-SVG-20010904/DTD/svg10.dtd">
<svg version="1.0" xmlns="http://www.w3.org/2000/svg"
 width="985.000000pt" height="164.000000pt" viewBox="0 0 985.000000 164.000000"
 preserveAspectRatio="xMidYMid meet">

<g transform="translate(0.000000,164.000000) scale(0.100000,-0.100000)"
fill="#000000" stroke="none">
<path d="M4800 860 l0 -740 820 0 820 0 0 740 0 740 -820 0 -820 0 0 -740z
m515 530 c46 -117 103 -265 195 -505 123 -321 145 -375 153 -372 5 1 40 83 78
182 39 99 96 248 128 330 32 83 87 223 121 313 l63 162 91 0 c83 -1 89 -2 71
-16 -11 -8 -28 -21 -37 -29 -38 -32 -41 -3 72 -920 l29 -230 30 -26 c17 -14
31 -29 31 -32 0 -4 -54 -7 -120 -7 -66 0 -120 2 -120 5 0 3 9 18 19 33 17 24
18 36 10 102 -25 217 -50 423 -59 490 -5 41 -17 134 -25 205 -20 167 -23 176
-40 139 -13 -28 -88 -220 -215 -549 -125 -327 -163 -416 -173 -412 -7 2 -53
111 -104 243 -242 622 -287 733 -294 728 -10 -6 -14 -28 -39 -244 -27 -235
-58 -486 -72 -592 -11 -85 -11 -89 10 -111 12 -13 22 -26 22 -30 0 -4 -37 -7
-82 -7 l-83 1 27 20 c16 11 32 36 37 57 5 20 38 265 73 545 l63 507 -24 44
c-14 27 -34 49 -52 56 -57 24 -41 31 67 28 l108 -3 41 -105z"/>
<path d="M6480 860 l0 -740 810 0 810 0 0 740 0 740 -810 0 -810 0 0 -740z
m1008 659 c210 -56 380 -195 464 -378 85 -184 75 -414 -25 -583 -143 -245
-434 -386 -712 -348 -294 41 -510 214 -597 478 -29 86 -32 277 -6 359 37 117
95 209 189 299 94 89 181 136 339 182 66 19 262 14 348 -9z"/>
<path d="M7170 1508 c-161 -43 -247 -91 -340 -188 -68 -71 -114 -146 -147
-242 -22 -61 -26 -92 -27 -193 -1 -133 16 -204 77 -320 45 -85 176 -213 258
-252 137 -64 193 -76 326 -71 153 7 248 41 370 132 65 49 83 74 55 75 -21 1
-104 8 -115 10 -5 0 -5 6 -2 11 4 7 24 8 49 5 33 -5 47 -3 59 10 20 19 22 32
5 37 -8 3 -6 7 5 11 9 3 16 3 16 -1 -4 -25 3 -33 28 -30 32 4 71 63 111 170
24 66 27 86 27 203 0 132 -10 183 -51 272 -31 68 -91 148 -149 201 -89 82
-167 121 -321 161 -50 13 -185 13 -234 -1z m109 -27 c9 -6 10 -11 2 -15 -6 -4
-11 -27 -11 -52 0 -24 -4 -44 -10 -44 -5 0 -10 20 -10 44 0 32 -5 46 -17 50
-15 6 -15 8 -3 16 19 12 31 12 49 1z m-85 -40 c3 -22 9 -46 12 -54 7 -20 -49
-47 -94 -45 -28 1 -34 5 -39 30 -3 16 -9 31 -14 34 -10 6 26 44 41 44 6 0 10
-10 10 -22 0 -13 7 -31 14 -41 12 -15 18 -17 36 -7 19 10 21 17 15 56 -3 25
-2 44 3 44 5 0 12 -18 16 -39z m166 26 c-9 -7 -14 -20 -12 -30 2 -10 -2 -25
-9 -33 -10 -13 -8 -16 12 -21 l24 -7 -25 -6 c-36 -10 -40 -5 -40 56 l0 54 33
0 c27 -1 30 -3 17 -13z m52 -39 c-14 -15 -22 -18 -22 -9 0 15 32 43 39 35 3
-3 -5 -14 -17 -26z m73 23 c9 -16 -9 -20 -23 -5 -10 12 -10 14 2 14 8 0 17 -4
21 -9z m50 -51 c0 -7 -6 -15 -12 -17 -8 -3 -13 4 -13 17 0 13 5 20 13 18 6 -3
12 -11 12 -18z m70 0 c3 -5 -2 -18 -12 -30 -62 -70 -57 -67 -62 -45 -2 12 5
25 18 33 11 8 21 23 21 33 0 20 24 26 35 9z m-577 -80 c8 0 12 -3 9 -7 -6 -6
-26 1 -78 28 -28 14 -29 -2 -3 -36 36 -47 14 -51 -30 -6 l-36 37 22 21 c13 12
34 23 48 25 20 2 28 -3 39 -29 7 -18 20 -33 29 -33z m612 46 c0 -8 -7 -16 -15
-20 -17 -6 -18 -4 -9 18 8 20 24 21 24 2z m-143 -31 c-4 -8 -11 -15 -17 -15
-14 0 -13 27 3 33 16 6 21 1 14 -18z m209 -19 c21 -14 30 -26 23 -28 -7 -2
-21 4 -31 14 -22 22 -58 12 -74 -21 l-11 -22 -6 23 c-6 22 -7 22 -20 4 -12
-16 -15 -16 -20 -4 -6 18 27 50 40 37 4 -4 19 -2 33 5 14 8 26 14 28 15 2 1
19 -10 38 -23z m-260 -31 c14 -13 14 -15 0 -15 -8 0 -17 4 -21 10 -3 5 -12 7
-19 4 -8 -3 -17 -1 -21 5 -10 17 44 13 61 -4z m-165 -34 c-14 -9 -7 -51 9 -51
5 0 15 -3 24 -6 11 -4 16 0 16 14 0 25 25 46 45 38 21 -8 19 -28 -6 -49 -35
-30 -13 -31 40 -1 51 29 74 27 54 -5 -7 -11 -8 -23 -2 -32 14 -22 11 -49 -6
-49 -8 0 -15 8 -15 18 0 15 -6 18 -32 14 -18 -2 -40 -11 -49 -18 -14 -12 -18
-13 -28 -1 -8 10 -25 13 -56 9 -27 -3 -50 0 -59 7 -11 10 -20 10 -36 1 -27
-15 -35 -8 -20 19 6 12 8 26 5 31 -9 15 77 0 93 -16 7 -8 18 -12 22 -9 12 8 2
32 -16 39 -25 10 -9 56 21 56 5 0 4 -4 -4 -9z m466 3 c-3 -3 -12 -4 -19 -1 -8
3 -5 6 6 6 11 1 17 -2 13 -5z m-697 -24 c0 -5 -4 -10 -9 -10 -6 0 -13 5 -16
10 -3 6 1 10 9 10 9 0 16 -4 16 -10z m-75 -10 c7 -11 -39 -25 -55 -15 -5 3 -8
11 -5 16 8 12 52 12 60 -1z m-91 -35 c-6 -16 -24 -21 -24 -7 0 11 11 22 21 22
5 0 6 -7 3 -15z m231 -5 c3 -6 -4 -10 -17 -10 -18 0 -20 2 -8 10 19 12 18 12
25 0z m665 -5 c0 -19 -34 -37 -54 -29 -15 6 -1 17 52 43 1 0 2 -6 2 -14z
m-862 -32 c-4 -34 -28 -43 -28 -10 0 25 7 37 22 37 5 0 8 -12 6 -27z m-45 -36
c-3 -5 -14 0 -25 11 -12 12 -17 25 -13 32 6 9 13 6 26 -11 9 -13 15 -27 12
-32z m242 3 c-9 -16 -22 -30 -30 -30 -8 0 -19 -9 -25 -20 -15 -29 -30 -25 -30
8 0 39 36 69 83 71 16 1 16 -1 2 -29z m-162 -65 c-5 -30 -6 -55 -3 -55 4 0 18
-27 30 -60 12 -33 27 -63 31 -66 14 -8 0 -24 -16 -18 -8 3 -37 -5 -64 -18 -40
-20 -47 -28 -39 -41 5 -10 20 -17 32 -17 13 0 26 -7 30 -15 3 -8 12 -15 20
-15 11 0 14 -17 12 -80 l-1 -80 -39 0 c-36 0 -38 1 -21 13 12 10 15 16 6 21
-8 5 -7 11 4 22 34 34 7 104 -48 123 -40 14 -55 1 -39 -34 8 -16 8 -25 1 -25
-12 0 -59 46 -59 57 1 17 37 49 75 67 22 10 44 25 48 32 4 8 14 14 21 14 25 0
37 25 26 54 -7 21 -15 26 -29 21 -19 -6 -91 30 -91 45 0 10 26 20 53 20 16 0
18 3 9 12 -19 19 -14 37 16 68 37 38 48 24 35 -45z m654 45 c18 0 33 -4 33
-10 0 -5 -4 -10 -9 -10 -16 0 -61 -53 -61 -71 0 -10 23 -44 50 -74 49 -54 58
-77 41 -103 -7 -11 -9 -11 -14 2 -9 23 -20 20 -60 -18 -20 -19 -57 -44 -82
-56 -30 -14 -45 -28 -45 -41 0 -10 -5 -19 -11 -19 -6 0 -8 7 -5 16 3 9 6 22 6
30 0 8 4 14 10 14 15 0 50 33 50 47 0 7 -4 13 -10 13 -5 0 -10 7 -10 15 0 20
-12 19 -38 -4 -14 -11 -22 -30 -22 -48 0 -17 -6 -36 -14 -42 -8 -7 -17 -23
-20 -36 -4 -14 -13 -25 -21 -25 -20 0 -19 9 5 45 11 17 20 39 20 50 0 11 7 29
15 39 16 21 21 66 8 66 -5 0 -19 9 -32 19 l-23 18 41 1 c23 1 41 -3 41 -8 0
-6 7 -10 15 -10 13 0 15 7 10 33 -6 29 -3 35 19 45 34 15 70 86 61 121 -5 21
-4 24 6 14 7 -7 28 -13 46 -13z m-284 -7 c4 -2 4 -15 1 -28 -6 -25 19 -72 42
-77 9 -2 11 -7 4 -18 -9 -13 -11 -13 -20 0 -8 13 -15 12 -51 -8 -23 -12 -45
-20 -48 -17 -3 4 1 10 9 15 18 11 25 102 10 130 -10 19 -9 20 17 14 15 -4 31
-9 36 -11z m-113 -3 c0 -5 -4 -10 -10 -10 -5 0 -10 5 -10 10 0 6 5 10 10 10 6
0 10 -4 10 -10z m283 -4 c1 -5 -7 -14 -18 -20 -11 -6 -24 -16 -30 -22 -5 -7
-20 -15 -32 -19 -32 -9 -31 22 0 34 13 5 29 16 36 25 14 17 40 18 44 2z m32 4
c3 -5 1 -10 -4 -10 -6 0 -11 5 -11 10 0 6 2 10 4 10 3 0 8 -4 11 -10z m228
-15 c46 -32 47 -45 2 -45 -23 0 -35 5 -35 14 0 7 -7 19 -15 26 -8 7 -15 16
-15 21 0 16 25 9 63 -16z m-973 0 c0 -8 -4 -15 -10 -15 -5 0 -10 7 -10 15 0 8
5 15 10 15 6 0 10 -7 10 -15z m77 -29 c-4 -9 -18 -16 -32 -16 -17 0 -25 -5
-25 -18 0 -9 -9 -23 -20 -30 -18 -11 -20 -10 -20 8 0 30 29 70 51 70 10 0 21
5 25 11 10 16 28 -6 21 -25z m304 24 c39 0 10 -37 -51 -67 -3 -1 -14 4 -24 12
-18 14 -18 15 5 40 13 13 30 23 37 20 8 -3 22 -5 33 -5z m69 -31 c0 -11 -4
-17 -10 -14 -5 3 -10 13 -10 21 0 8 5 14 10 14 6 0 10 -9 10 -21z m-21 -83
c-5 -6 -16 -2 -29 9 -27 24 -15 39 15 18 14 -11 20 -22 14 -27z m651 -28 c-1
-20 -3 -18 -15 11 -19 42 -19 46 0 27 8 -8 15 -25 15 -38z m-940 -17 c0 -6 -4
-13 -10 -16 -5 -3 -10 1 -10 9 0 9 5 16 10 16 6 0 10 -4 10 -9z m270 -5 c0 -7
-7 -19 -15 -26 -11 -9 -12 -16 -5 -26 9 -10 17 -10 45 2 61 25 89 -6 52 -59
-12 -18 -26 -35 -31 -39 -6 -4 -5 -12 1 -20 12 -14 14 -148 2 -148 -11 0 -18
51 -12 87 7 40 -10 44 -34 7 -16 -25 -16 -28 0 -56 9 -16 17 -42 17 -58 0 -16
6 -30 13 -33 8 -3 6 -7 -5 -12 -33 -13 -47 0 -39 37 6 27 3 37 -16 58 -13 13
-23 37 -23 52 0 16 -4 28 -10 28 -18 0 -10 29 10 35 27 8 27 59 1 77 -11 8
-23 26 -26 41 -6 23 -4 27 14 27 12 0 21 6 21 14 0 13 13 23 33 25 4 1 7 -5 7
-13z m80 -11 c9 -11 10 -15 1 -15 -7 0 -19 7 -27 15 -13 13 -13 15 -1 15 8 0
20 -7 27 -15z m-423 -27 c-3 -8 -6 -5 -6 6 -1 11 2 17 5 13 3 -3 4 -12 1 -19z
m899 -31 c-3 -12 -6 -31 -7 -42 0 -14 -24 54 -29 83 0 1 9 -2 21 -9 15 -8 19
-17 15 -32z m134 0 c0 -8 -7 -20 -15 -27 -13 -11 -15 -7 -15 29 0 38 2 41 15
27 8 -8 15 -21 15 -29z m-1106 -33 c4 -9 4 -19 1 -22 -8 -9 -58 12 -63 26 -6
19 55 15 62 -4z m266 -3 c14 -27 13 -28 -16 -34 -27 -5 -41 11 -30 38 8 21 33
19 46 -4z m272 -68 c2 -40 0 -75 -6 -81 -3 -3 -12 1 -21 8 -17 14 -21 50 -5
50 6 0 10 11 10 25 0 34 20 32 22 -2z m-244 -15 c-2 -13 4 -28 12 -35 13 -10
13 -15 2 -33 -14 -22 -7 -64 9 -55 5 4 9 -1 9 -9 0 -8 6 -19 14 -23 26 -16 38
-51 24 -73 -7 -11 -17 -20 -22 -20 -6 0 -5 5 1 11 8 8 6 19 -5 40 -14 23 -24
29 -61 31 -27 2 -46 8 -49 17 -3 10 0 12 11 8 25 -9 39 16 22 39 -19 25 -19
40 0 24 12 -10 15 -10 15 4 0 9 -4 16 -10 16 -16 0 -12 42 7 62 21 24 25 23
21 -4z m-246 -38 c24 0 34 -26 17 -46 -11 -14 -14 -13 -26 10 -8 14 -18 26
-23 26 -6 0 -10 8 -10 17 0 13 3 14 12 5 7 -7 20 -12 30 -12z m893 -76 c-8
-47 -23 -51 -31 -9 -5 26 -1 42 12 63 l19 27 3 -24 c2 -13 1 -39 -3 -57z m134
30 c-7 -8 -21 -13 -32 -10 -10 2 -30 1 -43 -4 -18 -7 -24 -6 -24 4 0 15 39 33
80 38 30 4 37 -7 19 -28z m-300 4 c0 -7 -4 -22 -9 -33 -7 -18 -8 -19 -15 -2
-4 9 -5 24 -1 32 7 18 26 20 25 3z m-159 -25 c0 -9 6 -13 15 -9 10 3 15 -1 15
-13 0 -19 -55 -49 -67 -37 -3 3 -1 6 5 6 14 0 16 36 3 45 -12 7 -21 -21 -19
-62 1 -30 4 -33 35 -33 30 0 122 -38 98 -41 -6 -1 -35 -2 -66 -4 -31 -1 -65
-8 -77 -14 -26 -14 -62 -14 -62 0 0 7 -13 8 -39 4 -30 -5 -40 -3 -45 10 -6 17
-4 18 64 36 42 11 43 12 23 22 -13 5 -23 16 -23 24 0 17 15 17 30 -2 7 -8 20
-14 29 -14 13 1 13 2 -1 6 -11 3 -18 14 -18 29 0 18 9 27 34 38 18 8 37 19 40
25 9 15 26 4 26 -16z m220 -6 c0 -23 -17 -47 -32 -47 -11 0 -10 13 2 44 12 32
30 34 30 3z m-709 -56 c24 -7 56 -22 71 -33 16 -10 33 -16 39 -12 7 4 17 0 23
-8 6 -8 19 -17 29 -21 26 -10 21 -27 -8 -27 -14 0 -48 16 -76 35 -28 19 -57
35 -64 35 -7 0 -18 7 -25 15 -18 22 -25 19 -50 -17 -19 -29 -21 -30 -15 -8 3
14 9 40 12 59 5 29 7 31 14 15 4 -12 24 -25 50 -33z m919 20 c0 -10 -7 -24
-15 -31 -12 -10 -16 -9 -21 4 -6 16 11 46 27 46 5 0 9 -8 9 -19z m-292 -25 c6
-30 -17 -45 -34 -22 -8 11 -14 26 -14 34 0 21 44 10 48 -12z m-608 -45 c0 -5
-9 -12 -19 -16 -11 -3 -22 -12 -25 -20 -6 -17 -36 -21 -36 -5 0 17 39 50 60
50 11 0 20 -4 20 -9z m170 -11 c0 -5 -2 -10 -4 -10 -3 0 -8 5 -11 10 -3 6 -1
10 4 10 6 0 11 -4 11 -10z m500 -11 c0 -5 -19 -9 -42 -8 l-43 0 35 13 c36 13
50 12 50 -5z m-495 -89 c5 -8 11 -7 20 0 8 7 22 10 32 8 16 -3 16 -5 -5 -26
-27 -27 -49 -26 -70 6 -13 20 -13 22 1 22 9 0 19 -5 22 -10z m135 -11 c0 -11
-4 -17 -10 -14 -5 3 -10 13 -10 21 0 8 5 14 10 14 6 0 10 -9 10 -21z m205 -1
c46 36 95 24 95 -23 0 -12 -5 -26 -12 -33 -15 -15 -55 -16 -64 -1 -3 6 -15 9
-25 6 -10 -3 -22 -1 -25 4 -9 15 -34 10 -34 -6 0 -16 -35 -21 -45 -5 -4 6 -15
6 -30 0 -31 -12 -33 5 -4 40 19 22 22 23 30 7 13 -23 39 -22 39 1 0 30 13 34
31 11 l17 -22 27 21z m-245 -48 c0 -23 -16 -26 -36 -6 -12 13 -12 15 4 19 30
8 32 7 32 -13z m50 -18 c-27 -4 -34 2 -26 23 5 13 8 13 26 -2 l21 -18 -21 -3z"/>
<path d="M7530 921 c0 -21 26 -36 36 -20 9 15 -3 39 -21 39 -8 0 -15 -9 -15
-19z"/>
<path d="M7527 856 c-3 -8 -2 -26 1 -41 7 -23 9 -25 20 -12 9 10 10 22 2 41
-11 30 -16 32 -23 12z"/>
<path d="M7461 362 c-12 -22 3 -42 31 -42 21 0 24 30 6 48 -17 17 -26 15 -37
-6z"/>
<path d="M8150 860 l0 -740 825 0 825 0 0 740 0 740 -825 0 -825 0 0 -740z
m580 631 c0 -5 -7 -11 -15 -15 -8 -3 -15 -14 -15 -24 0 -21 269 -423 287 -429
6 -2 74 86 152 197 170 242 165 234 146 254 -8 8 -15 17 -15 20 0 3 38 6 85 6
88 0 105 -8 57 -26 -20 -8 -58 -53 -124 -145 -277 -391 -263 -369 -247 -396
20 -33 257 -384 353 -522 48 -69 92 -121 112 -133 19 -11 34 -24 34 -29 0 -5
-65 -9 -145 -9 -80 0 -145 4 -145 9 0 5 7 14 15 21 8 7 15 18 15 25 0 6 -69
113 -152 237 -192 282 -194 285 -206 273 -33 -36 -352 -505 -352 -518 0 -9 5
-19 10 -22 27 -16 3 -25 -70 -25 -82 0 -101 11 -56 31 29 14 86 91 395 536 24
34 41 68 38 75 -3 7 -53 83 -112 168 -59 85 -145 212 -192 282 -58 86 -95 132
-114 140 -16 7 -29 16 -29 20 0 5 65 8 145 8 80 0 145 -4 145 -9z"/>
<path d="M581 1564 c0 -11 3 -14 6 -6 3 7 2 16 -1 19 -3 4 -6 -2 -5 -13z"/>
<path d="M741 1554 c0 -11 3 -14 6 -6 3 7 2 16 -1 19 -3 4 -6 -2 -5 -13z"/>
<path d="M855 1539 c-4 -6 -5 -12 -2 -15 2 -3 7 2 10 11 7 17 1 20 -8 4z"/>
<path d="M360 1510 c6 -11 13 -20 16 -20 2 0 0 9 -6 20 -6 11 -13 20 -16 20
-2 0 0 -9 6 -20z"/>
<path d="M190 1416 c0 -2 8 -10 18 -17 15 -13 16 -12 3 4 -13 16 -21 21 -21
13z"/>
<path d="M750 1410 c8 -5 22 -10 30 -10 13 0 13 1 0 10 -8 5 -22 10 -30 10
-13 0 -13 -1 0 -10z"/>
<path d="M1029 1403 c-13 -16 -12 -17 4 -4 9 7 17 15 17 17 0 8 -8 3 -21 -13z"/>
<path d="M670 1406 c0 -2 7 -7 16 -10 8 -3 12 -2 9 4 -6 10 -25 14 -25 6z"/>
<path d="M170 1396 c0 -2 8 -10 18 -17 15 -13 16 -12 3 4 -13 16 -21 21 -21
13z"/>
<path d="M619 1383 c-12 -16 -12 -17 1 -7 8 6 22 14 30 17 13 5 12 6 -1 6 -9
1 -23 -7 -30 -16z"/>
<path d="M1049 1383 c-13 -16 -12 -17 4 -4 9 7 17 15 17 17 0 8 -8 3 -21 -13z"/>
<path d="M440 1380 c-10 -6 -2 -7 25 -3 49 7 58 13 19 13 -16 0 -36 -5 -44
-10z"/>
<path d="M295 1340 c-7 -12 19 -12 55 0 22 7 21 8 -12 9 -20 1 -40 -3 -43 -9z"/>
<path d="M780 1335 c0 -8 -4 -15 -9 -15 -5 0 -12 -7 -15 -15 -5 -13 -1 -12 19
2 25 18 33 43 15 43 -5 0 -10 -7 -10 -15z"/>
<path d="M224 1298 l-19 -23 23 19 c21 18 27 26 19 26 -2 0 -12 -10 -23 -22z"/>
<path d="M490 1310 c-9 -6 -10 -10 -3 -10 6 0 15 5 18 10 8 12 4 12 -15 0z"/>
<path d="M652 1300 c-12 -13 -22 -18 -22 -12 0 7 -8 12 -17 12 -16 -1 -16 -2
1 -12 21 -12 98 -22 80 -10 -7 4 -13 16 -15 27 -4 18 -5 18 -27 -5z"/>
<path d="M112 1294 c10 -10 20 -16 22 -13 3 3 -5 11 -17 18 -21 13 -21 12 -5
-5z"/>
<path d="M430 1300 c0 -5 5 -10 11 -10 5 0 7 5 4 10 -3 6 -8 10 -11 10 -2 0
-4 -4 -4 -10z"/>
<path d="M700 1300 c0 -7 24 -20 36 -20 13 0 1 19 -16 23 -11 3 -20 2 -20 -3z"/>
<path d="M843 1293 c11 -12 17 -25 14 -30 -2 -4 4 -17 14 -27 11 -11 19 -16
19 -12 0 15 -29 63 -47 77 -17 13 -17 12 0 -8z"/>
<path d="M535 1290 c3 -5 13 -10 21 -10 8 0 14 5 14 10 0 6 -9 10 -21 10 -11
0 -17 -4 -14 -10z"/>
<path d="M1423 1293 c-10 -3 -13 -43 -13 -148 0 -118 3 -144 15 -149 31 -11
44 5 47 57 l3 52 53 5 c63 7 91 34 92 88 0 46 -16 71 -55 88 -33 13 -116 18
-142 7z m137 -68 c10 -12 10 -21 2 -40 -10 -21 -19 -25 -52 -25 l-40 0 0 40
c0 40 0 40 39 40 22 0 44 -6 51 -15z"/>
<path d="M1742 1283 c-72 -35 -104 -140 -64 -213 75 -137 292 -81 292 75 -1
115 -124 190 -228 138z m114 -48 c40 -16 68 -70 58 -110 -8 -33 -49 -72 -82
-78 -55 -11 -122 43 -122 98 0 31 32 77 63 90 40 18 41 18 83 0z"/>
<path d="M2024 1287 c-2 -7 -3 -75 -2 -151 l3 -138 80 -1 c75 0 80 1 83 21 3
20 -1 22 -52 22 -68 0 -69 3 -64 148 2 78 0 103 -10 107 -22 8 -32 6 -38 -8z"/>
<path d="M2257 1294 c-4 -4 -7 -71 -7 -150 0 -148 5 -163 45 -148 13 5 15 29
13 153 -3 138 -4 146 -23 149 -12 2 -24 0 -28 -4z"/>
<path d="M2377 1294 c-4 -4 -7 -16 -7 -26 0 -14 8 -18 35 -18 l34 0 3 -127 c3
-120 4 -128 23 -128 19 0 20 8 25 125 l5 125 38 3 c33 3 38 6 35 25 -3 21 -9
22 -93 25 -50 1 -94 0 -98 -4z"/>
<path d="M2627 1294 c-11 -12 -8 -294 3 -294 6 -1 46 -1 90 -1 44 0 85 0 90 1
6 0 10 9 10 20 0 18 -7 20 -70 20 l-70 0 0 39 0 40 53 3 c45 3 52 6 55 26 3
21 0 22 -52 22 l-56 0 0 40 0 40 71 0 c67 0 70 1 67 23 -3 21 -8 22 -93 25
-50 1 -94 0 -98 -4z"/>
<path d="M2960 1289 c-32 -13 -68 -47 -86 -81 -46 -88 23 -203 128 -215 50 -6
118 18 118 40 0 25 -26 40 -49 28 -25 -14 -77 -14 -102 -1 -10 6 -26 25 -35
42 -22 42 -11 90 27 122 34 29 71 32 109 11 18 -9 29 -10 37 -3 51 42 -68 88
-147 57z"/>
<path d="M3180 1151 c0 -90 4 -152 10 -156 6 -3 19 -3 30 0 18 6 20 15 20 98
l1 92 92 -98 c51 -54 95 -98 100 -97 4 0 6 69 5 153 -3 149 -3 152 -25 155
-22 3 -23 1 -23 -87 0 -50 -4 -91 -9 -91 -5 0 -47 41 -92 90 -45 50 -89 90
-96 90 -10 0 -13 -32 -13 -149z"/>
<path d="M3525 1288 c-3 -8 -4 -77 -3 -153 3 -132 4 -140 23 -140 19 0 20 7
20 150 0 135 -2 150 -18 153 -9 2 -19 -3 -22 -10z"/>
<path d="M3725 1286 c-17 -7 -43 -28 -58 -45 -104 -124 36 -300 188 -237 64
27 36 74 -30 52 -107 -37 -180 90 -95 167 33 30 71 34 110 12 18 -9 29 -10 37
-3 54 44 -72 89 -152 54z"/>
<path d="M4020 1282 c-108 -54 -108 -216 0 -273 95 -51 213 11 227 119 16 119
-116 210 -227 154z m143 -73 c37 -40 37 -88 -1 -130 -74 -82 -201 2 -158 105
17 41 66 69 106 60 14 -2 37 -18 53 -35z"/>
<path d="M504 1264 c-18 -14 -18 -15 4 -4 12 6 22 13 22 15 0 8 -5 6 -26 -11z"/>
<path d="M185 1260 c-3 -6 1 -7 9 -4 18 7 21 14 7 14 -6 0 -13 -4 -16 -10z"/>
<path d="M449 1261 c12 -8 13 -12 2 -25 -12 -14 -10 -19 9 -36 12 -11 27 -17
31 -14 5 3 9 0 9 -6 0 -6 5 -8 12 -4 8 5 1 12 -20 21 -36 15 -35 13 -22 47 8
23 7 26 -13 26 -17 0 -19 -2 -8 -9z"/>
<path d="M750 1256 c0 -8 7 -16 15 -20 9 -3 15 0 15 8 0 8 -7 16 -15 20 -9 3
-15 0 -15 -8z"/>
<path d="M565 1230 c-3 -5 -1 -18 4 -27 9 -16 10 -16 11 5 0 12 6 22 14 22 24
0 39 -29 38 -74 l0 -44 28 11 c24 9 27 14 17 26 -10 12 -12 12 -15 -2 -2 -10
-8 -17 -14 -17 -6 0 -7 8 -3 18 17 40 23 72 14 67 -5 -4 -16 1 -25 9 -17 18
-60 21 -69 6z"/>
<path d="M916 1221 c-4 -5 4 -7 16 -3 21 5 22 4 8 -14 -14 -18 -14 -18 3 -5 9
7 17 17 17 22 0 12 -37 12 -44 0z"/>
<path d="M366 1194 c-3 -8 1 -14 9 -14 20 0 28 17 11 23 -8 3 -17 -1 -20 -9z"/>
<path d="M790 1199 c0 -5 -16 -17 -35 -24 -19 -8 -39 -23 -44 -34 -17 -30 -2
-31 29 0 23 24 34 28 62 23 31 -5 32 -5 10 8 -17 11 -20 16 -10 26 9 9 9 12 0
12 -7 0 -12 -5 -12 -11z"/>
<path d="M885 1173 c-5 -10 -7 -26 -6 -36 1 -10 -3 -26 -11 -35 -12 -15 -11
-16 4 -4 10 8 23 10 30 6 10 -6 9 -3 -1 9 -8 11 -11 28 -7 47 6 33 2 39 -9 13z"/>
<path d="M283 1166 c0 -8 6 -12 14 -9 7 3 13 9 13 14 0 5 -6 9 -13 9 -8 0 -14
-6 -14 -14z"/>
<path d="M580 1170 c0 -8 5 -22 10 -30 9 -13 10 -13 10 0 0 8 -5 22 -10 30 -9
13 -10 13 -10 0z"/>
<path d="M160 1160 c8 -5 20 -10 25 -10 6 0 3 5 -5 10 -8 5 -19 10 -25 10 -5
0 -3 -5 5 -10z"/>
<path d="M445 1150 c3 -5 8 -10 11 -10 2 0 4 5 4 10 0 6 -5 10 -11 10 -5 0 -7
-4 -4 -10z"/>
<path d="M1045 1125 c-16 -13 -26 -24 -22 -25 4 0 20 11 35 25 34 32 26 32
-13 0z"/>
<path d="M140 1100 c-6 -23 -9 -56 -7 -73 4 -31 4 -31 5 5 3 63 17 88 49 85
15 -2 53 0 83 3 l55 7 -72 2 c-39 0 -78 4 -87 7 -11 4 -18 -5 -26 -36z"/>
<path d="M382 1120 c0 -14 2 -19 5 -12 2 6 2 18 0 25 -3 6 -5 1 -5 -13z"/>
<path d="M851 1124 c0 -11 3 -14 6 -6 3 7 2 16 -1 19 -3 4 -6 -2 -5 -13z"/>
<path d="M510 1121 c0 -9 30 -24 36 -18 2 1 -6 8 -16 15 -11 7 -20 8 -20 3z"/>
<path d="M48 1113 c7 -3 16 -2 19 1 4 3 -2 6 -13 5 -11 0 -14 -3 -6 -6z"/>
<path d="M580 1106 c0 -2 9 -6 20 -9 11 -3 20 -1 20 4 0 5 -9 9 -20 9 -11 0
-20 -2 -20 -4z"/>
<path d="M330 1094 c0 -5 7 -18 15 -28 8 -11 15 -16 15 -10 0 5 -7 18 -15 28
-8 11 -15 16 -15 10z"/>
<path d="M830 1075 c0 -15 4 -24 10 -20 6 3 10 12 10 20 0 8 -4 17 -10 20 -6
4 -10 -5 -10 -20z"/>
<path d="M970 1079 c0 -5 -4 -7 -10 -4 -5 3 -10 1 -10 -4 0 -16 26 -13 40 4
10 12 10 15 -4 15 -9 0 -16 -5 -16 -11z"/>
<path d="M656 1039 c-3 -17 -10 -28 -16 -24 -6 3 -7 0 -4 -9 4 -11 0 -16 -10
-16 -9 0 -16 -5 -16 -10 0 -7 6 -7 20 0 16 9 20 8 20 -6 0 -28 13 -7 15 23 0
16 4 38 9 51 4 12 3 22 -2 22 -5 0 -12 -14 -16 -31z"/>
<path d="M861 1054 c0 -11 3 -14 6 -6 3 7 2 16 -1 19 -3 4 -6 -2 -5 -13z"/>
<path d="M211 1044 c0 -11 3 -14 6 -6 3 7 2 16 -1 19 -3 4 -6 -2 -5 -13z"/>
<path d="M756 1036 c4 -10 17 -16 38 -15 27 2 28 2 6 6 -14 3 -31 10 -38 15
-9 8 -11 7 -6 -6z"/>
<path d="M361 1024 c0 -11 3 -14 6 -6 3 7 2 16 -1 19 -3 4 -6 -2 -5 -13z"/>
<path d="M427 1029 c7 -7 15 -10 18 -7 3 3 -2 9 -12 12 -14 6 -15 5 -6 -5z"/>
<path d="M482 1025 c-20 -11 -21 -13 -6 -19 9 -4 19 -4 22 -1 3 3 2 5 -3 5 -4
0 -2 7 5 15 14 17 13 17 -18 0z"/>
<path d="M1218 1013 c6 -2 18 -2 25 0 6 3 1 5 -13 5 -14 0 -19 -2 -12 -5z"/>
<path d="M13 1003 c9 -2 25 -2 35 0 9 3 1 5 -18 5 -19 0 -27 -2 -17 -5z"/>
<path d="M340 990 c0 -5 7 -10 15 -10 8 0 15 5 15 10 0 6 -7 10 -15 10 -8 0
-15 -4 -15 -10z"/>
<path d="M777 993 c-4 -3 -7 -13 -7 -22 1 -13 3 -13 11 2 11 19 8 33 -4 20z"/>
<path d="M718 983 c7 -3 16 -2 19 1 4 3 -2 6 -13 5 -11 0 -14 -3 -6 -6z"/>
<path d="M862 970 c0 -14 2 -19 5 -12 2 6 2 18 0 25 -3 6 -5 1 -5 -13z"/>
<path d="M885 970 c-4 -12 -5 -24 -2 -27 3 -2 8 5 12 17 4 12 5 24 2 27 -3 2
-8 -5 -12 -17z"/>
<path d="M518 948 c12 -12 25 -18 29 -14 4 4 -1 14 -11 22 -31 22 -43 17 -18
-8z"/>
<path d="M581 940 c-13 -11 -19 -20 -13 -20 10 0 42 27 42 36 0 7 -4 5 -29
-16z"/>
<path d="M642 927 c2 -20 5 -24 16 -15 7 6 9 14 5 17 -4 4 -11 10 -16 15 -4 5
-6 -2 -5 -17z"/>
<path d="M761 934 c0 -11 3 -14 6 -6 3 7 2 16 -1 19 -3 4 -6 -2 -5 -13z"/>
<path d="M371 910 c-10 -16 -20 -28 -22 -26 -2 3 -2 -23 1 -57 4 -57 5 -58 7
-17 5 66 11 88 33 110 11 11 15 20 10 20 -6 0 -18 -13 -29 -30z"/>
<path d="M490 931 c0 -6 4 -13 10 -16 6 -3 7 1 4 9 -7 18 -14 21 -14 7z"/>
<path d="M105 920 c3 -5 8 -10 11 -10 2 0 4 5 4 10 0 6 -5 10 -11 10 -5 0 -7
-4 -4 -10z"/>
<path d="M266 918 c3 -4 12 -8 20 -8 8 0 14 4 14 8 0 4 -9 8 -19 8 -11 0 -17
-4 -15 -8z"/>
<path d="M853 896 c7 -14 13 -23 15 -21 7 6 -9 45 -18 45 -4 0 -3 -11 3 -24z"/>
<path d="M138 903 c7 -3 16 -2 19 1 4 3 -2 6 -13 5 -11 0 -14 -3 -6 -6z"/>
<path d="M205 901 c-3 -6 -11 -8 -19 -5 -7 3 -13 -2 -13 -10 0 -11 5 -13 19
-5 20 11 53 -2 61 -23 3 -7 4 -3 4 9 -1 12 -4 20 -8 17 -4 -2 -14 3 -23 11 -8
9 -17 11 -21 6z"/>
<path d="M748 898 c-2 -7 -1 -29 3 -48 l6 -35 2 42 c1 30 6 43 19 46 13 4 12
5 -4 6 -12 0 -24 -5 -26 -11z"/>
<path d="M934 878 c-23 -27 -24 -29 -3 -10 14 12 31 22 37 22 7 0 12 5 12 10
0 18 -16 10 -46 -22z"/>
<path d="M1203 903 c9 -2 23 -2 30 0 6 3 -1 5 -18 5 -16 0 -22 -2 -12 -5z"/>
<path d="M439 883 c-13 -16 -12 -17 4 -4 9 7 17 15 17 17 0 8 -8 3 -21 -13z"/>
<path d="M499 871 l-24 -20 23 6 c23 5 38 20 29 29 -2 2 -15 -4 -28 -15z"/>
<path d="M627 882 c-9 -2 -15 -8 -11 -13 4 -6 10 -6 19 1 10 8 12 0 10 -41 -2
-50 5 -50 20 0 5 16 4 21 -4 17 -6 -4 -11 -2 -11 4 0 6 7 13 15 16 8 4 15 10
15 14 0 9 -18 9 -53 2z"/>
<path d="M1083 835 c0 -22 2 -30 4 -17 2 12 2 30 0 40 -3 9 -5 -1 -4 -23z"/>
<path d="M806 843 c-6 -14 -5 -15 5 -6 7 7 10 15 7 18 -3 3 -9 -2 -12 -12z"/>
<path d="M851 844 c0 -11 3 -14 6 -6 3 7 2 16 -1 19 -3 4 -6 -2 -5 -13z"/>
<path d="M456 841 c-3 -5 0 -25 7 -45 11 -33 13 -35 24 -16 11 16 10 18 -2 14
-14 -6 -19 7 -18 44 1 14 -4 16 -11 3z"/>
<path d="M512 830 c0 -14 2 -19 5 -12 2 6 2 18 0 25 -3 6 -5 1 -5 -13z"/>
<path d="M1435 755 c-16 -92 -15 -132 4 -121 5 3 12 33 16 66 4 33 10 60 15
60 4 0 18 -27 30 -60 12 -33 26 -63 30 -65 4 -3 18 21 30 53 36 89 40 89 55
-5 7 -44 21 -64 30 -41 7 19 -28 199 -39 199 -5 0 -23 -31 -39 -70 -16 -39
-33 -69 -37 -66 -3 2 -19 36 -34 74 -15 39 -31 71 -36 71 -4 0 -15 -43 -25
-95z"/>
<path d="M1702 743 c4 -140 23 -141 23 -1 0 74 -4 103 -13 106 -10 3 -12 -20
-10 -105z"/>
<path d="M1792 743 l3 -108 53 0 c61 0 71 19 13 23 l-40 3 -3 91 c-2 63 -7 93
-16 96 -10 3 -12 -20 -10 -105z"/>
<path d="M1976 750 c-25 -55 -46 -105 -46 -110 0 -19 21 -10 32 15 10 22 17
25 64 25 43 0 54 -3 59 -19 7 -22 35 -37 35 -19 0 17 -84 208 -91 208 -3 0
-27 -45 -53 -100z m67 13 c2 -10 8 -26 12 -35 6 -15 2 -18 -29 -18 -41 0 -41
1 -21 40 18 34 30 38 38 13z"/>
<path d="M2162 743 c3 -125 20 -146 28 -34 l5 74 65 -78 65 -78 3 108 c1 59 0
110 -3 113 -12 13 -18 -12 -16 -73 1 -36 -2 -65 -7 -65 -5 0 -35 30 -67 68
-32 37 -62 69 -67 70 -5 2 -7 -42 -6 -105z"/>
<path d="M2421 824 c-57 -47 -50 -137 13 -175 62 -38 136 -10 157 60 31 105
-87 185 -170 115z m124 -29 c57 -56 0 -149 -79 -129 -28 7 -56 48 -56 84 0 32
44 70 80 70 19 0 40 -9 55 -25z"/>
<path d="M2866 829 c-30 -23 -33 -45 -11 -69 14 -15 14 -18 0 -30 -38 -31 -3
-100 50 -100 50 0 86 65 54 97 -8 8 -8 17 1 33 16 30 5 64 -25 78 -34 16 -38
15 -69 -9z m62 -18 c23 -14 10 -46 -21 -49 -31 -4 -46 20 -27 43 14 17 29 19
48 6z m0 -93 c18 -18 15 -46 -6 -57 -39 -21 -73 36 -34 58 22 13 26 13 40 -1z"/>
<path d="M3072 829 c-64 -42 -83 -129 -37 -174 31 -32 59 -32 90 0 32 31 32
59 -1 91 -19 20 -31 24 -50 20 -35 -9 -27 13 14 39 17 11 31 26 32 33 0 17
-10 15 -48 -9z m38 -104 c15 -18 10 -45 -12 -59 -33 -20 -69 20 -54 60 7 18
50 18 66 -1z"/>
<path d="M3199 831 c-30 -24 -20 -36 16 -19 24 11 29 10 40 -6 19 -25 8 -46
-26 -53 -38 -7 -37 -17 4 -28 25 -8 32 -15 32 -35 0 -23 -3 -25 -43 -23 -49 2
-54 -16 -8 -32 39 -14 80 11 84 51 2 18 -3 36 -12 43 -14 11 -14 15 0 36 18
27 7 57 -26 75 -26 14 -34 13 -61 -9z"/>
<path d="M200 829 c0 -5 5 -7 10 -4 6 3 10 8 10 11 0 2 -4 4 -10 4 -5 0 -10
-5 -10 -11z"/>
<path d="M2717 822 c-21 -23 -22 -43 -2 -36 12 5 15 -5 15 -60 0 -59 -2 -66
-20 -66 -11 0 -20 -7 -20 -16 0 -12 10 -14 52 -12 30 2 53 8 56 16 2 7 -5 12
-17 12 -20 0 -21 5 -21 90 0 95 -9 110 -43 72z"/>
<path d="M854 816 c-10 -8 -16 -17 -12 -21 4 -4 17 2 29 14 26 24 13 29 -17 7z"/>
<path d="M221 794 c0 -11 3 -14 6 -6 3 7 2 16 -1 19 -3 4 -6 -2 -5 -13z"/>
<path d="M982 788 c7 -15 15 -23 17 -17 2 6 -4 18 -13 27 -15 15 -15 15 -4
-10z"/>
<path d="M866 781 c-4 -7 -5 -15 -2 -18 9 -9 19 4 14 18 -4 11 -6 11 -12 0z"/>
<path d="M510 773 c0 -16 45 -35 71 -30 21 4 21 4 -5 6 -16 0 -38 8 -48 18
-10 9 -18 12 -18 6z"/>
<path d="M636 757 c3 -10 9 -15 12 -12 3 3 0 11 -7 18 -10 9 -11 8 -5 -6z"/>
<path d="M227 746 c-4 -9 -1 -13 7 -10 6 2 25 -9 40 -27 15 -17 30 -28 33 -25
4 3 4 7 2 9 -2 1 -20 17 -40 35 -29 27 -38 30 -42 18z"/>
<path d="M373 744 c9 -11 15 -23 12 -26 -3 -3 6 -9 22 -13 20 -5 31 -2 40 11
7 10 13 21 13 26 0 12 -34 10 -48 -4 -9 -9 -17 -7 -34 8 l-23 19 18 -21z"/>
<path d="M680 749 c0 -5 5 -7 10 -4 6 3 10 8 10 11 0 2 -4 4 -10 4 -5 0 -10
-5 -10 -11z"/>
<path d="M730 745 c0 -8 4 -15 10 -15 5 0 7 7 4 15 -4 8 -8 15 -10 15 -2 0 -4
-7 -4 -15z"/>
<path d="M1160 750 c8 -5 20 -10 25 -10 6 0 3 5 -5 10 -8 5 -19 10 -25 10 -5
0 -3 -5 5 -10z"/>
<path d="M80 740 c-9 -6 -10 -10 -3 -10 6 0 15 5 18 10 8 12 4 12 -15 0z"/>
<path d="M768 733 c7 -3 16 -2 19 1 4 3 -2 6 -13 5 -11 0 -14 -3 -6 -6z"/>
<path d="M1147 729 c7 -7 15 -10 18 -7 3 3 -2 9 -12 12 -14 6 -15 5 -6 -5z"/>
<path d="M657 723 c-4 -3 -7 -19 -7 -35 0 -15 -4 -28 -10 -28 -5 0 -7 -6 -4
-14 5 -12 8 -12 23 2 13 13 15 23 9 40 -4 13 -6 28 -2 33 6 10 0 12 -9 2z"/>
<path d="M934 711 c20 -22 26 -25 26 -13 0 4 -10 13 -22 21 -23 14 -23 14 -4
-8z"/>
<path d="M487 701 c-4 -17 -3 -21 5 -13 5 5 8 16 6 23 -3 8 -7 3 -11 -10z"/>
<path d="M847 713 c-4 -3 -7 -11 -7 -17 0 -6 5 -5 12 2 6 6 9 14 7 17 -3 3 -9
2 -12 -2z"/>
<path d="M683 685 c18 -38 36 -31 21 9 -3 9 -12 16 -19 16 -10 0 -11 -5 -2
-25z"/>
<path d="M1010 700 c0 -5 10 -10 23 -10 18 0 19 2 7 10 -19 13 -30 13 -30 0z"/>
<path d="M841 664 c0 -11 3 -14 6 -6 3 7 2 16 -1 19 -3 4 -6 -2 -5 -13z"/>
<path d="M236 643 c-6 -14 -5 -15 5 -6 7 7 10 15 7 18 -3 3 -9 -2 -12 -12z"/>
<path d="M330 656 c0 -11 60 -36 82 -35 19 1 18 2 -7 8 -16 4 -40 13 -52 20
-13 6 -23 9 -23 7z"/>
<path d="M776 651 c-3 -5 5 -8 19 -8 14 0 22 3 19 8 -3 5 -11 9 -19 9 -8 0
-16 -4 -19 -9z"/>
<path d="M124 634 c-18 -14 -18 -15 4 -4 12 6 22 13 22 15 0 8 -5 6 -26 -11z"/>
<path d="M420 646 c0 -2 7 -7 16 -10 8 -3 12 -2 9 4 -6 10 -25 14 -25 6z"/>
<path d="M566 641 c-19 -7 -18 -8 4 -14 13 -3 26 -4 29 -2 2 3 -2 5 -10 6 -8
0 -6 4 6 9 25 11 -2 12 -29 1z"/>
<path d="M738 633 c7 -3 16 -2 19 1 4 3 -2 6 -13 5 -11 0 -14 -3 -6 -6z"/>
<path d="M1090 636 c0 -3 9 -10 20 -16 11 -6 20 -8 20 -6 0 3 -9 10 -20 16
-11 6 -20 8 -20 6z"/>
<path d="M145 620 c-3 -6 1 -7 9 -4 18 7 21 14 7 14 -6 0 -13 -4 -16 -10z"/>
<path d="M788 623 c7 -3 16 -2 19 1 4 3 -2 6 -13 5 -11 0 -14 -3 -6 -6z"/>
<path d="M448 613 c6 -2 18 -2 25 0 6 3 1 5 -13 5 -14 0 -19 -2 -12 -5z"/>
<path d="M641 594 c0 -11 3 -14 6 -6 3 7 2 16 -1 19 -3 4 -6 -2 -5 -13z"/>
<path d="M200 555 c-7 -9 -11 -17 -9 -20 3 -2 10 5 17 15 14 24 10 26 -8 5z"/>
<path d="M1030 542 c6 -13 14 -21 18 -18 3 4 -2 14 -12 24 -18 16 -18 16 -6
-6z"/>
<path d="M239 513 c-13 -16 -12 -17 4 -4 9 7 17 15 17 17 0 8 -8 3 -21 -13z"/>
<path d="M259 493 c-13 -16 -12 -17 4 -4 9 7 17 15 17 17 0 8 -8 3 -21 -13z"/>
<path d="M491 394 c0 -11 3 -14 6 -6 3 7 2 16 -1 19 -3 4 -6 -2 -5 -13z"/>
<path d="M652 390 c0 -14 2 -19 5 -12 2 6 2 18 0 25 -3 6 -5 1 -5 -13z"/>
<path d="M1440 120 l0 -70 35 0 c25 0 44 8 60 25 30 30 31 54 4 89 -16 20 -29
26 -60 26 l-39 0 0 -70z m78 38 c7 -7 12 -24 12 -38 0 -32 -17 -50 -47 -50
-21 0 -23 4 -23 50 0 46 2 50 23 50 13 0 28 -5 35 -12z"/>
<path d="M1590 120 c0 -40 4 -70 10 -70 6 0 10 30 10 70 0 40 -4 70 -10 70 -6
0 -10 -30 -10 -70z"/>
<path d="M1660 120 c0 -40 4 -70 10 -70 6 0 10 11 10 25 0 19 5 25 23 25 29 0
47 18 47 45 0 30 -19 45 -57 45 l-33 0 0 -70z m63 38 c7 -21 -4 -38 -24 -38
-14 0 -19 7 -19 25 0 18 5 25 19 25 11 0 21 -6 24 -12z"/>
<path d="M1790 126 c-29 -66 -32 -100 -6 -63 17 22 62 22 75 0 5 -10 13 -15
17 -10 4 4 -7 37 -24 74 l-31 67 -31 -68z m40 -6 c9 -17 8 -20 -9 -20 -14 0
-18 5 -14 20 3 11 7 20 9 20 2 0 8 -9 14 -20z"/>
<path d="M1910 120 c0 -68 15 -98 22 -43 4 37 20 38 40 3 21 -37 43 -41 26 -5
-9 19 -9 28 0 37 15 15 15 51 0 66 -7 7 -29 12 -50 12 l-38 0 0 -70z m77 34
c7 -18 -14 -35 -37 -31 -8 1 -16 12 -18 25 -3 18 1 22 23 22 14 0 28 -7 32
-16z"/>
<path d="M2040 180 c0 -5 7 -10 15 -10 12 0 15 -13 15 -60 0 -33 4 -60 10 -60
6 0 10 27 10 60 0 47 3 60 15 60 8 0 15 5 15 10 0 6 -18 10 -40 10 -22 0 -40
-4 -40 -10z"/>
<path d="M2160 120 c0 -40 4 -70 10 -70 6 0 10 30 10 70 0 40 -4 70 -10 70 -6
0 -10 -30 -10 -70z"/>
<path d="M2306 145 c-10 -25 -21 -45 -25 -45 -5 0 -15 18 -24 40 -8 22 -20 40
-25 40 -5 0 -13 -29 -18 -65 -8 -52 -7 -65 3 -65 8 0 13 13 13 35 0 43 13 45
30 5 16 -38 24 -38 40 0 16 38 30 38 30 1 0 -26 15 -50 25 -40 5 6 -16 123
-24 131 -3 4 -14 -13 -25 -37z"/>
<path d="M2400 120 l0 -70 47 0 c48 0 50 15 3 22 -35 4 -32 31 5 39 30 6 28 9
-21 24 -23 7 -12 29 17 33 47 7 44 22 -4 22 l-47 0 0 -70z"/>
<path d="M2526 182 c-10 -10 -6 -132 4 -132 6 0 10 18 10 40 0 22 4 40 8 40 4
0 23 -16 42 -35 19 -19 38 -35 42 -35 14 0 5 123 -9 128 -9 2 -13 -10 -13 -40
l-1 -43 -39 41 c-21 23 -41 39 -44 36z"/>
<path d="M2670 180 c0 -5 7 -10 15 -10 12 0 15 -13 15 -60 0 -33 4 -60 10 -60
6 0 10 27 10 60 0 46 3 60 14 60 8 0 18 5 21 10 4 6 -12 10 -39 10 -25 0 -46
-4 -46 -10z"/>
<path d="M2797 172 c-25 -28 -22 -87 5 -106 49 -35 111 -4 111 54 0 59 -78 94
-116 52z m74 -12 c39 -21 16 -90 -30 -90 -16 0 -41 30 -41 50 0 20 25 50 41
50 6 0 19 -5 30 -10z"/>
<path d="M3000 120 l0 -70 35 0 c46 0 75 29 75 74 0 42 -29 66 -77 66 l-33 0
0 -70z m74 34 c31 -30 9 -84 -35 -84 -16 0 -19 7 -19 50 0 43 3 50 19 50 11 0
27 -7 35 -16z"/>
<path d="M3150 120 c0 -40 4 -70 10 -70 6 0 10 30 10 70 0 40 -4 70 -10 70 -6
0 -10 -30 -10 -70z"/>
<path d="M3267 169 c-15 -63 -19 -119 -8 -119 6 0 11 10 11 23 0 44 15 49 34
10 l18 -38 21 40 21 40 7 -33 c4 -18 9 -36 13 -39 14 -15 15 8 3 73 l-14 69
-21 -47 c-12 -27 -24 -48 -26 -48 -3 0 -16 21 -29 47 -22 43 -24 44 -30 22z"/>
<path d="M3446 125 c-16 -36 -25 -69 -22 -73 4 -4 12 1 17 11 13 22 58 22 75
0 26 -37 23 -3 -5 61 -17 36 -32 66 -33 66 -2 0 -16 -29 -32 -65z m39 -23
c-22 -5 -27 1 -19 23 7 17 8 17 21 -1 12 -17 12 -19 -2 -22z"/>
<path d="M3555 180 c3 -5 13 -10 21 -10 11 0 14 -14 14 -60 0 -33 4 -60 10
-60 6 0 10 27 10 60 0 47 3 60 15 60 8 0 15 5 15 10 0 6 -21 10 -46 10 -27 0
-43 -4 -39 -10z"/>
<path d="M3670 120 l0 -70 45 0 c52 0 61 17 13 22 -42 4 -44 31 -3 39 30 6 28
9 -21 24 -23 7 -12 29 17 33 47 7 44 22 -4 22 l-47 0 0 -70z"/>
<path d="M3886 145 c-10 -25 -21 -45 -25 -45 -5 0 -16 18 -26 40 -10 22 -21
40 -25 40 -6 0 -30 -122 -24 -129 9 -10 24 14 24 40 0 37 14 37 30 -1 16 -38
24 -38 40 0 16 38 30 38 30 1 0 -17 5 -33 11 -37 14 -8 3 115 -10 129 -4 4
-16 -13 -25 -38z"/>
<path d="M3982 125 c-31 -63 -36 -101 -8 -62 17 22 62 22 74 1 5 -9 14 -15 19
-13 6 2 -3 34 -21 72 l-31 69 -33 -67z m48 -17 c0 -5 -7 -8 -15 -8 -15 0 -20
21 -8 33 7 7 23 -11 23 -25z"/>
<path d="M4090 180 c0 -5 7 -10 15 -10 12 0 15 -13 15 -60 0 -33 4 -60 10 -60
6 0 10 25 10 56 0 47 3 57 20 61 36 9 21 23 -25 23 -25 0 -45 -4 -45 -10z"/>
<path d="M4210 120 c0 -40 4 -70 10 -70 6 0 10 30 10 70 0 40 -4 70 -10 70 -6
0 -10 -30 -10 -70z"/>
<path d="M4291 171 c-54 -54 2 -142 73 -115 27 11 18 26 -12 19 -40 -8 -70 25
-56 63 9 23 15 27 47 26 46 -2 45 20 -1 24 -21 2 -37 -3 -51 -17z"/>
<path d="M4427 119 c-26 -61 -28 -91 -3 -56 17 22 62 22 75 0 5 -10 13 -15 17
-11 8 9 -38 120 -53 125 -5 2 -22 -24 -36 -58z m51 -7 c2 -7 -5 -12 -17 -12
-14 0 -19 5 -14 15 6 17 25 15 31 -3z"/>
</g>
</svg>
