<?xml version="1.0" standalone="no"?>
<!DOCTYPE svg PUBLIC "-//W3C//DTD SVG 20010904//EN"
 "http://www.w3.org/TR/2001/REC-SVG-20010904/DTD/svg10.dtd">
<svg version="1.0" xmlns="http://www.w3.org/2000/svg"
 width="230.000000pt" height="77.000000pt" viewBox="0 0 230.000000 77.000000"
 preserveAspectRatio="xMidYMid meet">

<g transform="translate(0.000000,77.000000) scale(0.100000,-0.100000)"
fill="#000000" stroke="none">
<path d="M481 618 c-11 -24 -23 -56 -28 -73 l-8 -30 -5 39 c-4 34 -10 41 -34
47 -17 5 -32 6 -35 3 -7 -7 -5 -75 3 -108 4 -15 2 -26 -4 -26 -5 0 -10 6 -10
14 0 21 -14 27 -50 20 -28 -6 -31 -10 -27 -33 5 -24 1 -29 -36 -47 -40 -18
-42 -21 -45 -66 -2 -43 0 -49 25 -61 16 -8 40 -17 56 -21 24 -6 27 -3 27 17 0
20 -8 27 -47 39 -27 9 -48 19 -48 24 1 5 23 17 51 27 l51 18 51 -32 c28 -17
57 -29 64 -26 7 2 22 22 33 43 11 22 24 42 29 46 6 4 4 13 -4 23 -13 15 -11
16 16 12 42 -7 64 -18 64 -31 0 -6 5 -4 10 4 8 13 11 12 23 -4 8 -11 19 -16
25 -12 5 3 12 3 14 -2 1 -4 33 -23 70 -42 66 -33 68 -33 88 -15 17 16 24 16
48 5 l27 -12 -30 -13 c-16 -8 -38 -16 -47 -19 -11 -3 -18 -15 -18 -30 0 -24 2
-25 28 -16 66 25 71 30 70 81 l0 48 -51 19 c-29 11 -70 23 -92 27 l-40 9 34 5
c28 5 36 12 43 36 12 46 -15 52 -122 28 l-25 -5 25 18 c14 9 27 19 28 20 2 1
-1 19 -8 38 -11 35 -12 36 -40 21 -15 -8 -42 -26 -59 -41 -33 -27 -39 -26 -19
6 10 16 9 23 -12 45 -13 14 -27 25 -31 25 -4 0 -16 -19 -28 -42z"/>
<path d="M1125 501 c-42 -25 -65 -53 -81 -98 -46 -131 26 -255 139 -240 87 12
142 90 142 202 0 78 -18 116 -66 141 -39 19 -98 18 -134 -5z m106 -31 c50 -28
63 -135 24 -210 -31 -60 -104 -71 -148 -22 -53 58 -14 222 56 235 39 8 48 7
68 -3z"/>
<path d="M1450 502 c-47 -23 -65 -61 -50 -108 10 -29 23 -40 81 -69 62 -32 69
-38 69 -65 0 -39 -23 -50 -103 -50 -62 0 -77 -7 -77 -37 0 -3 41 -3 91 -1 85
3 92 5 115 31 28 33 32 82 8 116 -9 13 -40 34 -68 46 -58 26 -79 46 -74 72 5
26 46 43 106 43 45 0 52 3 52 20 0 18 -7 20 -57 20 -35 0 -72 -7 -93 -18z"/>
<path d="M1696 488 c-5 -24 -26 -263 -26 -298 0 -14 7 -20 23 -20 23 0 24 3
35 138 7 76 12 146 12 156 0 17 6 18 51 13 63 -8 79 -20 79 -62 0 -39 -37 -75
-76 -75 -17 0 -24 -6 -24 -20 0 -14 7 -20 22 -20 36 0 104 38 116 66 18 38 14
89 -7 115 -17 21 -29 24 -110 27 -88 4 -90 3 -95 -20z"/>
<path d="M1980 492 c0 -20 -17 -209 -25 -279 -4 -40 -3 -43 19 -43 28 0 31 14
41 165 4 50 9 103 12 119 5 28 7 28 51 22 60 -8 85 -31 78 -70 -9 -42 -23 -55
-67 -62 -30 -5 -39 -11 -39 -27 0 -17 4 -19 43 -13 76 12 109 48 111 119 1 31
-5 44 -27 63 -25 21 -38 24 -113 24 -75 0 -84 -2 -84 -18z"/>
</g>
</svg>
